<svg xmlns="http://www.w3.org/2000/svg" width="430" height="430" style="width:100%;height:100%;transform:translate3d(0,0,0);content-visibility:visible" viewBox="0 0 430 430"><defs><clipPath id="a"><path d="M0 0h430v430H0z"/></clipPath><clipPath id="j"><path d="M0 0h430v430H0z"/></clipPath><clipPath id="i"><path d="M0 0h430v430H0z"/></clipPath><clipPath id="h"><path d="M0 0h430v430H0z"/></clipPath><clipPath id="e"><path d="M0 0h430v430H0z"/></clipPath><clipPath id="f"><path d="M0 0h430v430H0z"/></clipPath><clipPath id="g"><path d="M0 0h430v430H0z"/></clipPath><clipPath id="c"><path d="M0 0h430v430H0z"/></clipPath><clipPath id="d"><path d="M0 0h430v430H0z"/></clipPath><clipPath id="b"><path d="M0 0h430v430H0z"/></clipPath></defs><g clip-path="url(#a)"><g clip-path="url(#b)" style="display:none"><g fill="none" style="display:none"><path class="secondary"/><path class="primary"/></g><g style="display:none"><path class="secondary"/><path fill="none" class="secondary"/></g><g fill="none" style="display:none"><path class="secondary"/><path class="primary"/></g><g fill="none" style="display:none"><path class="primary"/><path class="primary"/></g></g><g clip-path="url(#c)" style="display:none"><g clip-path="url(#d)" style="display:none"><path fill="none" class="primary" style="display:none"/><path fill="none" class="primary" style="display:none"/><path fill="none" class="secondary" style="display:none"/><g style="display:none"><path class="secondary"/><path fill="none" class="secondary"/></g><path fill="none" class="secondary" style="display:none"/><path fill="none" class="primary" style="display:none"/><path fill="none" class="primary" style="display:none"/><path fill="none" class="primary" style="display:none"/></g></g><g clip-path="url(#e)" style="display:none"><g clip-path="url(#f)" style="display:none"><path fill="none" class="primary" style="display:none"/><path fill="none" class="primary" style="display:none"/><path fill="none" class="secondary" style="display:none"/><g style="display:none"><path class="secondary"/><path fill="none" class="secondary"/></g><path fill="none" class="secondary" style="display:none"/><path fill="none" class="primary" style="display:none"/><path fill="none" class="primary" style="display:none"/><path fill="none" class="primary" style="display:none"/></g><g clip-path="url(#g)" style="display:none"><path fill="none" class="primary" style="display:none"/><path fill="none" class="primary" style="display:none"/><path fill="none" class="secondary" style="display:none"/><g style="display:none"><path class="secondary"/><path fill="none" class="secondary"/></g><path fill="none" class="secondary" style="display:none"/><path fill="none" class="primary" style="display:none"/><path fill="none" class="primary" style="display:none"/><path fill="none" class="primary" style="display:none"/></g></g><g fill="none" clip-path="url(#h)" style="display:block"><path stroke="#FFF" stroke-width="19" d="M-102.8-160h-.938C-134.811-160-160-134.811-160-103.738v207.672c0 30.964 25.102 56.066 56.066 56.066h.934" class="secondary" style="display:block" transform="translate(215 215)scale(.625)"/><path stroke="#FFF" stroke-linecap="round" stroke-linejoin="round" stroke-width="24" d="M99.938-100.5h-.063" class="secondary" style="display:block" transform="translate(215.125 215.313)scale(.625)"/><path stroke="#FFF" stroke-linecap="round" stroke-linejoin="round" stroke-width="19" d="M160-18.575V-103.8c0-31.038-25.162-56.2-56.2-56.2H-104q0 0 0 0c-30.928 0-56 25.072-56 56v207.4c0 31.259 25.341 56.6 56.6 56.6h207.2c31.038 0 56.2-25.162 56.2-56.2z" class="secondary" style="display:block" transform="translate(215 215)scale(.625)"/><path stroke="#FFF" stroke-width="19.5" d="M0 85c-46.911 0-85-38.089-85-85s38.089-85 85-85" class="secondary" style="display:block" transform="translate(215 215)scale(.618)"/><path stroke="#FFF" stroke-linecap="round" stroke-linejoin="round" stroke-width="19.5" d="M0-85h-.5M0 85h-.5" class="secondary" style="display:block" transform="translate(215.45 214.402)scale(.618)"/><g style="display:block"><path d="M215 162.47c28.991 0 52.53 23.539 52.53 52.53s-23.539 52.53-52.53 52.53-52.53-23.539-52.53-52.53 23.539-52.53 52.53-52.53" class="secondary"/><path stroke="#FFF" stroke-width="12.051" d="M215 162.47c28.991 0 52.53 23.539 52.53 52.53s-23.539 52.53-52.53 52.53-52.53-23.539-52.53-52.53 23.539-52.53 52.53-52.53z" class="secondary"/></g><path stroke="#FFF" stroke-linecap="round" stroke-linejoin="round" stroke-width="12" d="M0-167.5c92.443 0 167.5 75.057 167.5 167.5S92.443 167.5 0 167.5-167.5 92.443-167.5 0-92.443-167.5 0-167.5" class="primary" style="display:block" transform="rotate(-45 367.028 -152.028)"/></g><g clip-path="url(#i)" style="display:none"><path fill="none" class="secondary" style="display:none"/><g style="display:none"><path class="secondary"/><path fill="none" class="secondary"/></g><path fill="none" class="secondary" style="display:none"/><path fill="none" class="primary" style="display:none"/></g><g fill="none" clip-path="url(#j)" style="display:none"><path class="secondary" style="display:none"/><path class="secondary" style="display:none"/><path class="secondary" style="display:none"/><path class="primary" style="display:none"/></g></g></svg>